<?xml version="1.0" standalone="no"?>
<!DOCTYPE svg PUBLIC "-//W3C//DTD SVG 20010904//EN"
 "http://www.w3.org/TR/2001/REC-SVG-20010904/DTD/svg10.dtd">
<svg version="1.0" xmlns="http://www.w3.org/2000/svg"
 width="512.000000pt" height="512.000000pt" viewBox="0 0 512.000000 512.000000"
 preserveAspectRatio="xMidYMid meet">

<g transform="translate(0.000000,512.000000) scale(0.100000,-0.100000)"
fill="#000000" stroke="none">
<path d="M3124 5098 c-16 -12 -33 -24 -37 -28 -4 -4 74 -116 173 -250 100
-133 184 -248 186 -255 3 -8 -66 -58 -180 -131 l-185 -117 17 -29 c9 -16 22
-33 27 -38 7 -5 84 38 199 111 104 66 189 119 191 117 1 -2 85 -113 185 -248
100 -135 186 -249 190 -253 8 -9 29 0 64 27 17 14 8 29 -168 266 -102 138
-186 254 -186 258 0 5 126 88 280 186 l280 177 -15 27 c-8 15 -18 33 -23 40
-7 10 -78 -31 -296 -169 -243 -153 -290 -180 -301 -168 -7 8 -94 123 -192 257
l-180 242 -29 -22z"/>
<path d="M1881 4364 c-123 -33 -218 -113 -274 -232 -30 -62 -32 -75 -32 -172
0 -99 2 -109 33 -173 44 -89 114 -160 199 -200 64 -30 75 -32 178 -32 103 0
114 2 177 32 157 74 246 227 236 404 -15 256 -269 440 -517 373z"/>
<path d="M3010 4108 c-69 -237 -73 -248 -89 -248 -28 0 -79 -38 -96 -70 -9
-18 -39 -156 -66 -308 -27 -152 -50 -280 -52 -283 -1 -4 -101 34 -222 83
l-220 89 -364 75 c-200 41 -385 74 -410 74 -97 0 -221 -87 -305 -214 -86 -130
-226 -478 -226 -563 0 -48 28 -102 64 -124 32 -19 112 -36 123 -25 4 3 26 99
49 212 23 113 44 208 48 211 3 3 13 3 22 -1 11 -4 14 -13 10 -29 -3 -12 -44
-214 -91 -449 l-85 -427 2 -968 3 -969 25 -49 c81 -158 297 -165 398 -12 l27
41 3 888 2 888 28 -6 c15 -3 35 -8 45 -11 16 -4 17 -54 17 -871 0 -978 -5
-912 79 -984 136 -116 338 -43 371 134 6 30 10 413 10 957 l0 906 96 480 c54
264 100 483 104 488 3 4 112 -36 241 -88 159 -64 247 -95 274 -95 45 0 96 27
120 64 24 36 159 798 150 845 -4 23 -21 49 -48 75 l-41 39 43 145 c23 80 38
148 34 152 -4 4 -18 11 -30 14 -20 6 -24 1 -43 -66z"/>
</g>
</svg>
